<svg xmlns="http://www.w3.org/2000/svg" width="1600" height="1040" viewBox="0 0 1600 1040" role="img" aria-labelledby="title desc">
  <title id="title">FAMIS-GF and FAMIS-WCF Accounting Blueprint</title>
  <desc id="desc">Static source-to-statement blueprint for Financial Accounting Management Information System general fund and working capital fund variants.</desc>
  <defs>
    <style>
      .bg { fill: #f5f8fc; }
      .panel { fill: #ffffff; stroke: #d5e1f2; stroke-width: 2; }
      .title { fill: #08234a; font: 800 43px Arial, sans-serif; }
      .subtitle { fill: #415778; font: 21px Arial, sans-serif; }
      .layer-title { fill: #0b2f66; font: 800 20px Arial, sans-serif; letter-spacing: .8px; }
      .box-title { fill: #ffffff; font: 800 20px Arial, sans-serif; }
      .box-text { fill: #e9f2ff; font: 15px Arial, sans-serif; }
      .note { fill: #253b5b; font: 16px Arial, sans-serif; }
      .arrow { stroke: #163e7a; stroke-width: 4; fill: none; marker-end: url(#arrow); }
      .source { fill: #174f9a; }
      .core { fill: #145a7a; }
      .detail { fill: #7152b8; }
      .finance { fill: #b05a1f; }
      .report { fill: #7a3d86; }
      .statement { fill: #132f58; }
    </style>
    <marker id="arrow" viewBox="0 0 10 10" refX="9" refY="5" markerWidth="9" markerHeight="9" orient="auto-start-reverse">
      <path d="M 0 0 L 10 5 L 0 10 z" fill="#163e7a"/>
    </marker>
  </defs>
  <rect class="bg" width="1600" height="1040"/>
  <text class="title" x="70" y="88">FAMIS-GF and FAMIS-WCF Accounting Blueprint</text>
  <text class="subtitle" x="70" y="124">Financial Accounting Management Information System lineage for general fund execution and working capital fund cost recovery</text>

  <rect class="panel" x="55" y="165" width="1490" height="710" rx="18"/>

  <text class="layer-title" x="90" y="215">SOURCE EVENTS</text>
  <text class="layer-title" x="340" y="215">FAMIS PROCESSING</text>
  <text class="layer-title" x="610" y="215">DETAIL RECORDS</text>
  <text class="layer-title" x="880" y="215">ACCOUNTING CONTROL</text>
  <text class="layer-title" x="1160" y="215">REPORTING</text>
  <text class="layer-title" x="1360" y="215">STATEMENTS</text>

  <g transform="translate(85 250)">
    <rect class="source" width="190" height="88" rx="12"/>
    <text class="box-title" x="18" y="32">GF Funding</text>
    <text class="box-text" x="18" y="58">Appropriation, LOA,</text>
    <text class="box-text" x="18" y="76">allotment, authority</text>
  </g>
  <g transform="translate(85 370)">
    <rect class="source" width="190" height="88" rx="12"/>
    <text class="box-title" x="18" y="32">WCF Operations</text>
    <text class="box-text" x="18" y="58">Orders, inventory,</text>
    <text class="box-text" x="18" y="76">billing, cost recovery</text>
  </g>
  <g transform="translate(85 490)">
    <rect class="source" width="190" height="88" rx="12"/>
    <text class="box-title" x="18" y="32">Procure to Pay</text>
    <text class="box-text" x="18" y="58">Awards, receipts,</text>
    <text class="box-text" x="18" y="76">invoices, payments</text>
  </g>
  <g transform="translate(85 610)">
    <rect class="source" width="190" height="88" rx="12"/>
    <text class="box-title" x="18" y="32">Treasury / IGT</text>
    <text class="box-text" x="18" y="58">Disbursing, IPAC,</text>
    <text class="box-text" x="18" y="76">collections, GTAS</text>
  </g>

  <g transform="translate(340 250)">
    <rect class="core" width="200" height="88" rx="12"/>
    <text class="box-title" x="18" y="32">FAMIS-GF</text>
    <text class="box-text" x="18" y="58">General fund budget</text>
    <text class="box-text" x="18" y="76">execution accounting</text>
  </g>
  <g transform="translate(340 370)">
    <rect class="core" width="200" height="88" rx="12"/>
    <text class="box-title" x="18" y="32">FAMIS-WCF</text>
    <text class="box-text" x="18" y="58">Working capital fund</text>
    <text class="box-text" x="18" y="76">cost and billing</text>
  </g>
  <g transform="translate(340 490)">
    <rect class="core" width="200" height="88" rx="12"/>
    <text class="box-title" x="18" y="32">AP / AR / GL</text>
    <text class="box-text" x="18" y="58">Payables, receivables,</text>
    <text class="box-text" x="18" y="76">journals, close</text>
  </g>
  <g transform="translate(340 610)">
    <rect class="core" width="200" height="88" rx="12"/>
    <text class="box-title" x="18" y="32">Suspense / JV</text>
    <text class="box-text" x="18" y="58">Rejects, corrections,</text>
    <text class="box-text" x="18" y="76">manual adjustments</text>
  </g>

  <g transform="translate(610 250)">
    <rect class="detail" width="200" height="88" rx="12"/>
    <text class="box-title" x="18" y="32">Fund Cite Detail</text>
    <text class="box-text" x="18" y="58">TAS, appropriation,</text>
    <text class="box-text" x="18" y="76">fiscal year, org</text>
  </g>
  <g transform="translate(610 370)">
    <rect class="detail" width="200" height="88" rx="12"/>
    <text class="box-title" x="18" y="32">Customer Order</text>
    <text class="box-text" x="18" y="58">WCF order, billing,</text>
    <text class="box-text" x="18" y="76">collection, revenue</text>
  </g>
  <g transform="translate(610 490)">
    <rect class="detail" width="200" height="88" rx="12"/>
    <text class="box-title" x="18" y="32">P2P Detail</text>
    <text class="box-text" x="18" y="58">PO, receipt, invoice,</text>
    <text class="box-text" x="18" y="76">payment, liquidation</text>
  </g>
  <g transform="translate(610 610)">
    <rect class="detail" width="200" height="88" rx="12"/>
    <text class="box-title" x="18" y="32">JV / Suspense</text>
    <text class="box-text" x="18" y="58">Root cause, support,</text>
    <text class="box-text" x="18" y="76">approval, clearing</text>
  </g>

  <g transform="translate(885 250)">
    <rect class="finance" width="200" height="88" rx="12"/>
    <text class="box-title" x="18" y="32">Budgetary GL</text>
    <text class="box-text" x="18" y="58">Authority, obligation,</text>
    <text class="box-text" x="18" y="76">expenditure, outlay</text>
  </g>
  <g transform="translate(885 370)">
    <rect class="finance" width="200" height="88" rx="12"/>
    <text class="box-title" x="18" y="32">WCF Costing</text>
    <text class="box-text" x="18" y="58">Rates, inventory,</text>
    <text class="box-text" x="18" y="76">revenue, cost recovery</text>
  </g>
  <g transform="translate(885 490)">
    <rect class="finance" width="200" height="88" rx="12"/>
    <text class="box-title" x="18" y="32">Proprietary GL</text>
    <text class="box-text" x="18" y="58">Expense, AP, AR,</text>
    <text class="box-text" x="18" y="76">FBWT, assets</text>
  </g>
  <g transform="translate(885 610)">
    <rect class="finance" width="200" height="88" rx="12"/>
    <text class="box-title" x="18" y="32">Reconciliation</text>
    <text class="box-text" x="18" y="58">Trial balance, rejects,</text>
    <text class="box-text" x="18" y="76">Treasury tie-outs</text>
  </g>

  <g transform="translate(1160 300)">
    <rect class="report" width="160" height="100" rx="12"/>
    <text class="box-title" x="18" y="34">Execution</text>
    <text class="box-text" x="18" y="61">Status of funds, ULO,</text>
    <text class="box-text" x="18" y="80">WCF operations</text>
  </g>
  <g transform="translate(1160 480)">
    <rect class="report" width="160" height="100" rx="12"/>
    <text class="box-title" x="18" y="34">DDRS / GTAS</text>
    <text class="box-text" x="18" y="61">Trial balance and</text>
    <text class="box-text" x="18" y="80">Treasury support</text>
  </g>

  <g transform="translate(1370 300)">
    <rect class="statement" width="135" height="100" rx="12"/>
    <text class="box-title" x="18" y="34">SBR</text>
    <text class="box-text" x="18" y="61">General fund</text>
    <text class="box-text" x="18" y="80">budgetary</text>
  </g>
  <g transform="translate(1370 430)">
    <rect class="statement" width="135" height="100" rx="12"/>
    <text class="box-title" x="18" y="34">WCF</text>
    <text class="box-text" x="18" y="61">Inventory, revenue,</text>
    <text class="box-text" x="18" y="80">net cost</text>
  </g>
  <g transform="translate(1370 560)">
    <rect class="statement" width="135" height="100" rx="12"/>
    <text class="box-title" x="18" y="34">Notes</text>
    <text class="box-text" x="18" y="61">FBWT, ULO, AP/AR,</text>
    <text class="box-text" x="18" y="80">suspense</text>
  </g>

  <path class="arrow" d="M 280 294 H 330"/>
  <path class="arrow" d="M 545 294 H 600"/>
  <path class="arrow" d="M 815 294 H 875"/>
  <path class="arrow" d="M 1090 294 H 1150"/>
  <path class="arrow" d="M 1325 350 H 1360"/>
  <path class="arrow" d="M 280 414 H 330"/>
  <path class="arrow" d="M 545 414 H 600"/>
  <path class="arrow" d="M 815 414 H 875"/>
  <path class="arrow" d="M 1090 414 C 1120 414 1130 500 1150 520"/>
  <path class="arrow" d="M 1325 530 H 1360"/>
  <path class="arrow" d="M 280 534 H 330"/>
  <path class="arrow" d="M 545 534 H 600"/>
  <path class="arrow" d="M 815 534 H 875"/>
  <path class="arrow" d="M 1090 534 H 1150"/>
  <path class="arrow" d="M 1325 530 C 1345 530 1345 610 1360 610"/>

  <rect class="panel" x="70" y="905" width="1460" height="90" rx="14"/>
  <text class="note" x="95" y="940">Tech-stack note: public FAMIS-GF/FAMIS-WCF technical documentation is thin; this model does not claim SAP or Oracle.</text>
  <text class="note" x="95" y="970">Audit lens: compare GF budget execution with WCF cost recovery while preserving document, GL, trial balance, and statement lineage.</text>
</svg>
