<svg xmlns="http://www.w3.org/2000/svg" width="1600" height="1050" viewBox="0 0 1600 1050" role="img" aria-labelledby="title desc">
  <title id="title">LMP / Army Logistics Modernization Program Blueprint</title>
  <desc id="desc">Static source-to-statement blueprint for Army LMP national logistics, depot maintenance, wholesale supply, working capital fund, and finance reporting lineage.</desc>
  <defs>
    <style>
      .bg { fill: #f5f8fc; }
      .panel { fill: #ffffff; stroke: #d5e1f2; stroke-width: 2; }
      .title { fill: #08234a; font: 800 44px Arial, sans-serif; }
      .subtitle { fill: #415778; font: 22px Arial, sans-serif; }
      .layer-title { fill: #0b2f66; font: 800 21px Arial, sans-serif; letter-spacing: .8px; }
      .box-title { fill: #ffffff; font: 800 20px Arial, sans-serif; }
      .box-text { fill: #e9f2ff; font: 15px Arial, sans-serif; }
      .note { fill: #253b5b; font: 16px Arial, sans-serif; }
      .arrow { stroke: #163e7a; stroke-width: 4; fill: none; marker-end: url(#arrow); }
      .source { fill: #174f9a; }
      .core { fill: #13895a; }
      .detail { fill: #7152b8; }
      .finance { fill: #b05a1f; }
      .report { fill: #7a3d86; }
      .statement { fill: #132f58; }
    </style>
    <marker id="arrow" viewBox="0 0 10 10" refX="9" refY="5" markerWidth="9" markerHeight="9" orient="auto-start-reverse">
      <path d="M 0 0 L 10 5 L 0 10 z" fill="#163e7a"/>
    </marker>
  </defs>
  <rect class="bg" width="1600" height="1050"/>
  <text class="title" x="70" y="88">LMP / Army Logistics Modernization Program Blueprint</text>
  <text class="subtitle" x="70" y="124">National logistics ERP: wholesale supply, depot maintenance, procurement, inventory, AWCF, GFEBS/reporting handoff</text>

  <rect class="panel" x="55" y="165" width="1490" height="720" rx="18"/>

  <text class="layer-title" x="90" y="215">SOURCE / PARTNER EVENTS</text>
  <text class="layer-title" x="340" y="215">LMP CORE CAPABILITIES</text>
  <text class="layer-title" x="610" y="215">TRANSACTION DETAIL</text>
  <text class="layer-title" x="885" y="215">FINANCIAL IMPACT</text>
  <text class="layer-title" x="1160" y="215">REPORTING</text>
  <text class="layer-title" x="1360" y="215">STATEMENTS</text>

  <g transform="translate(85 250)">
    <rect class="source" width="190" height="88" rx="12"/>
    <text class="box-title" x="18" y="32">AMC / Depot</text>
    <text class="box-text" x="18" y="58">Maintenance and repair</text>
    <text class="box-text" x="18" y="76">program events</text>
  </g>
  <g transform="translate(85 370)">
    <rect class="source" width="190" height="88" rx="12"/>
    <text class="box-title" x="18" y="32">DLA / DLMS</text>
    <text class="box-text" x="18" y="58">Catalog, requisition,</text>
    <text class="box-text" x="18" y="76">shipment status</text>
  </g>
  <g transform="translate(85 490)">
    <rect class="source" width="190" height="88" rx="12"/>
    <text class="box-title" x="18" y="32">Vendors / PIEE</text>
    <text class="box-text" x="18" y="58">Contracts, invoices,</text>
    <text class="box-text" x="18" y="76">receipt evidence</text>
  </g>
  <g transform="translate(85 610)">
    <rect class="source" width="190" height="88" rx="12"/>
    <text class="box-title" x="18" y="32">GCSS-Army</text>
    <text class="box-text" x="18" y="58">Tactical demand and</text>
    <text class="box-text" x="18" y="76">sustainment signal</text>
  </g>

  <g transform="translate(340 250)">
    <rect class="core" width="200" height="88" rx="12"/>
    <text class="box-title" x="18" y="32">Wholesale Supply</text>
    <text class="box-text" x="18" y="58">Demand, sourcing,</text>
    <text class="box-text" x="18" y="76">distribution support</text>
  </g>
  <g transform="translate(340 370)">
    <rect class="core" width="200" height="88" rx="12"/>
    <text class="box-title" x="18" y="32">Depot Maintenance</text>
    <text class="box-text" x="18" y="58">Repair program, work</text>
    <text class="box-text" x="18" y="76">orders, cost capture</text>
  </g>
  <g transform="translate(340 490)">
    <rect class="core" width="200" height="88" rx="12"/>
    <text class="box-title" x="18" y="32">Procurement</text>
    <text class="box-text" x="18" y="58">Buy, receive, accept,</text>
    <text class="box-text" x="18" y="76">pay support</text>
  </g>
  <g transform="translate(340 610)">
    <rect class="core" width="200" height="88" rx="12"/>
    <text class="box-title" x="18" y="32">Inventory Control</text>
    <text class="box-text" x="18" y="58">Stock, valuation,</text>
    <text class="box-text" x="18" y="76">condition, movement</text>
  </g>

  <g transform="translate(610 250)">
    <rect class="detail" width="200" height="88" rx="12"/>
    <text class="box-title" x="18" y="32">Material Master</text>
    <text class="box-text" x="18" y="58">NSN, price, source,</text>
    <text class="box-text" x="18" y="76">unit of issue</text>
  </g>
  <g transform="translate(610 370)">
    <rect class="detail" width="200" height="88" rx="12"/>
    <text class="box-title" x="18" y="32">Work Orders</text>
    <text class="box-text" x="18" y="58">Depot repair tasks,</text>
    <text class="box-text" x="18" y="76">labor, parts, status</text>
  </g>
  <g transform="translate(610 490)">
    <rect class="detail" width="200" height="88" rx="12"/>
    <text class="box-title" x="18" y="32">PO / Invoice Detail</text>
    <text class="box-text" x="18" y="58">PIID, CLIN, receipt,</text>
    <text class="box-text" x="18" y="76">acceptance, AP</text>
  </g>
  <g transform="translate(610 610)">
    <rect class="detail" width="200" height="88" rx="12"/>
    <text class="box-title" x="18" y="32">Inventory Moves</text>
    <text class="box-text" x="18" y="58">Receipt, issue, count,</text>
    <text class="box-text" x="18" y="76">adjustment history</text>
  </g>

  <g transform="translate(885 250)">
    <rect class="finance" width="200" height="88" rx="12"/>
    <text class="box-title" x="18" y="32">AWCF Costing</text>
    <text class="box-text" x="18" y="58">Rates, cost recovery,</text>
    <text class="box-text" x="18" y="76">customer billing</text>
  </g>
  <g transform="translate(885 370)">
    <rect class="finance" width="200" height="88" rx="12"/>
    <text class="box-title" x="18" y="32">Inventory Value</text>
    <text class="box-text" x="18" y="58">Quantity, condition,</text>
    <text class="box-text" x="18" y="76">standard price</text>
  </g>
  <g transform="translate(885 490)">
    <rect class="finance" width="200" height="88" rx="12"/>
    <text class="box-title" x="18" y="32">AP / AR / GL</text>
    <text class="box-text" x="18" y="58">Vendor pay, billing,</text>
    <text class="box-text" x="18" y="76">journal postings</text>
  </g>
  <g transform="translate(885 610)">
    <rect class="finance" width="200" height="88" rx="12"/>
    <text class="box-title" x="18" y="32">GFEBS Tie-Out</text>
    <text class="box-text" x="18" y="58">Army general-fund and</text>
    <text class="box-text" x="18" y="76">reporting linkage</text>
  </g>

  <g transform="translate(1160 300)">
    <rect class="report" width="160" height="100" rx="12"/>
    <text class="box-title" x="18" y="34">Operational</text>
    <text class="box-text" x="18" y="61">Readiness, demand,</text>
    <text class="box-text" x="18" y="80">depot execution</text>
  </g>
  <g transform="translate(1160 480)">
    <rect class="report" width="160" height="100" rx="12"/>
    <text class="box-title" x="18" y="34">Financial</text>
    <text class="box-text" x="18" y="61">Trial balance, DDRS,</text>
    <text class="box-text" x="18" y="80">GTAS, audit support</text>
  </g>

  <g transform="translate(1370 300)">
    <rect class="statement" width="135" height="100" rx="12"/>
    <text class="box-title" x="18" y="34">SBR</text>
    <text class="box-text" x="18" y="61">Budgetary</text>
    <text class="box-text" x="18" y="80">resources</text>
  </g>
  <g transform="translate(1370 430)">
    <rect class="statement" width="135" height="100" rx="12"/>
    <text class="box-title" x="18" y="34">Inventory</text>
    <text class="box-text" x="18" y="61">OM&amp;S / stock</text>
    <text class="box-text" x="18" y="80">valuation</text>
  </g>
  <g transform="translate(1370 560)">
    <rect class="statement" width="135" height="100" rx="12"/>
    <text class="box-title" x="18" y="34">Net Cost</text>
    <text class="box-text" x="18" y="61">Depot, supply,</text>
    <text class="box-text" x="18" y="80">program cost</text>
  </g>

  <path class="arrow" d="M 280 294 H 330"/>
  <path class="arrow" d="M 545 294 H 600"/>
  <path class="arrow" d="M 815 294 H 875"/>
  <path class="arrow" d="M 1090 294 H 1150"/>
  <path class="arrow" d="M 1325 350 H 1360"/>
  <path class="arrow" d="M 280 414 H 330"/>
  <path class="arrow" d="M 545 414 H 600"/>
  <path class="arrow" d="M 815 414 H 875"/>
  <path class="arrow" d="M 1090 414 C 1120 414 1130 500 1150 520"/>
  <path class="arrow" d="M 1325 530 H 1360"/>
  <path class="arrow" d="M 280 534 H 330"/>
  <path class="arrow" d="M 545 534 H 600"/>
  <path class="arrow" d="M 815 534 H 875"/>
  <path class="arrow" d="M 1090 534 H 1150"/>
  <path class="arrow" d="M 1325 530 C 1345 530 1345 610 1360 610"/>
  <path class="arrow" d="M 280 654 H 330"/>
  <path class="arrow" d="M 545 654 H 600"/>
  <path class="arrow" d="M 815 654 H 875"/>

  <rect class="panel" x="70" y="910" width="1460" height="95" rx="14"/>
  <text class="note" x="95" y="945">Tech-stack note: LMP is modeled as an Army SAP-based national logistics ERP / working-capital logistics backbone.</text>
  <text class="note" x="95" y="975">Audit lens: preserve document-level lineage across material, work order, PO/invoice, inventory movement, AWCF costing, GL/reporting, and statement assertions.</text>
</svg>
